<?xml version="1.0" encoding="UTF-8"?>
<!DOCTYPE svg PUBLIC "-//W3C//DTD SVG 1.1//EN" "http://www.w3.org/Graphics/SVG/1.1/DTD/svg11.dtd">
<svg xmlns="http://www.w3.org/2000/svg" version="1.1" width="960px" height="1316px" style="shape-rendering:geometricPrecision; text-rendering:geometricPrecision; image-rendering:optimizeQuality; fill-rule:evenodd; clip-rule:evenodd" xmlns:xlink="http://www.w3.org/1999/xlink">
<g><path style="opacity:1" fill="#ec7c30" d="M 832.5,-0.5 C 832.833,-0.5 833.167,-0.5 833.5,-0.5C 833.821,53.1757 833.321,106.842 832,160.5C 776.986,215.347 722.153,270.347 667.5,325.5C 721.82,380.32 776.32,434.986 831,489.5C 831.865,542.843 831.531,596.176 830,649.5C 722.127,541.96 614.627,434.127 507.5,326C 615.662,217.005 723.995,108.172 832.5,-0.5 Z"/></g>
<g><path style="opacity:1" fill="#ec7c30" d="M 840.5,220.5 C 841.552,220.351 842.552,220.517 843.5,221C 878.833,256 914.167,291 949.5,326C 914.13,361.743 878.296,396.91 842,431.5C 806.09,396.452 770.256,361.285 734.5,326C 769.728,290.605 805.062,255.438 840.5,220.5 Z"/></g>
<g><path style="opacity:0.997" fill="#4472c4" d="M 483.5,423.5 C 483.938,478.183 483.438,532.85 482,587.5C 399.986,669.347 318.153,751.347 236.5,833.5C 317.486,914.986 398.653,996.32 480,1077.5C 480.5,1129.83 480.667,1182.17 480.5,1234.5C 480.5,1261.5 480.5,1288.5 480.5,1315.5C 480.167,1315.5 479.833,1315.5 479.5,1315.5C 319.833,1155.17 159.833,995.167 -0.5,835.5C -0.5,834.833 -0.5,834.167 -0.5,833.5C 160.812,672.521 322.146,511.521 483.5,350.5C 483.833,356.667 484.167,362.833 484.5,369C 483.843,387.162 483.509,405.328 483.5,423.5 Z"/></g>
<g><path style="opacity:0.995" fill="#fefefe" d="M 480.5,1234.5 C 480.667,1182.17 480.5,1129.83 480,1077.5C 398.653,996.32 317.486,914.986 236.5,833.5C 318.153,751.347 399.986,669.347 482,587.5C 483.438,532.85 483.938,478.183 483.5,423.5C 494.465,413.035 505.298,402.369 516,391.5C 663.68,539.014 811.18,686.68 958.5,834.5C 812.514,980.986 666.347,1127.32 520,1273.5C 506.965,1260.3 493.798,1247.3 480.5,1234.5 Z M 515.5,605.5 C 592.146,681.479 668.479,757.812 744.5,834.5C 670.167,909.5 595.5,984.167 520.5,1058.5C 444.014,982.514 367.68,906.347 291.5,830C 366.368,755.299 441.035,680.465 515.5,605.5 Z"/></g>
<g><path style="opacity:0.982" fill="#4471c3" d="M 444.5,740.5 C 450.631,746.13 456.631,751.964 462.5,758C 438.167,782.333 413.833,806.667 389.5,831C 414.5,856 439.5,881 464.5,906C 458.667,911.833 452.833,917.667 447,923.5C 416.1,892.6 385.267,861.767 354.5,831C 384.277,800.612 414.277,770.445 444.5,740.5 Z"/></g>
<g><path style="opacity:0.982" fill="#4471c3" d="M 590.5,740.5 C 621.032,770.532 651.365,800.698 681.5,831C 650.733,861.767 619.9,892.6 589,923.5C 583.167,917.667 577.333,911.833 571.5,906C 596.5,881 621.5,856 646.5,831C 622.167,806.667 597.833,782.333 573.5,758C 579.37,752.298 585.036,746.465 590.5,740.5 Z"/></g>
<g><path style="opacity:0.978" fill="#4471c3" d="M 448.5,810.5 C 465.332,809.836 473.832,817.836 474,834.5C 468.102,850.692 457.269,855.192 441.5,848C 429.503,836.681 429.503,825.347 441.5,814C 443.925,812.787 446.259,811.621 448.5,810.5 Z"/></g>
<g><path style="opacity:0.979" fill="#4471c3" d="M 513.5,810.5 C 531.98,809.48 540.48,818.146 539,836.5C 533.751,849.706 524.251,854.206 510.5,850C 498.738,843.044 495.571,833.211 501,820.5C 504.191,815.837 508.358,812.503 513.5,810.5 Z"/></g>
<g><path style="opacity:0.978" fill="#4471c3" d="M 579.5,810.5 C 596.332,809.836 604.832,817.836 605,834.5C 599.102,850.692 588.269,855.192 572.5,848C 560.503,836.681 560.503,825.347 572.5,814C 574.925,812.787 577.259,811.621 579.5,810.5 Z"/></g>
</svg>
